<mxfile host="app.diagrams.net" modified="2024-04-07T20:43:42.721Z" agent="Mozilla/5.0 (Windows NT 10.0; Win64; x64) AppleWebKit/537.36 (KHTML, like Gecko) Chrome/123.0.0.0 Safari/537.36" etag="jyELvvD98tL44monzTX0" version="24.2.2" type="github">
  <diagram name="Página-1" id="oEyC9UfiI3NPHXeDVx-9">
    <mxGraphModel dx="1494" dy="800" grid="1" gridSize="10" guides="1" tooltips="1" connect="1" arrows="1" fold="1" page="1" pageScale="1" pageWidth="1169" pageHeight="827" math="0" shadow="0">
      <root>
        <mxCell id="0" />
        <mxCell id="1" parent="0" />
        <mxCell id="smeWoDBhxwMaDhyixX8N-74" value="" style="group" parent="1" vertex="1" connectable="0">
          <mxGeometry x="1034" y="30" width="320" height="750" as="geometry" />
        </mxCell>
        <mxCell id="smeWoDBhxwMaDhyixX8N-63" value="Value Object" style="verticalAlign=top;align=left;spacingTop=8;spacingLeft=2;spacingRight=12;shape=cube;size=10;direction=south;fontStyle=4;html=1;whiteSpace=wrap;" parent="smeWoDBhxwMaDhyixX8N-74" vertex="1">
          <mxGeometry width="320" height="749.9999999999999" as="geometry" />
        </mxCell>
        <mxCell id="smeWoDBhxwMaDhyixX8N-64" value="Duration" style="swimlane;fontStyle=2;align=center;verticalAlign=top;childLayout=stackLayout;horizontal=1;startSize=26;horizontalStack=0;resizeParent=1;resizeLast=0;collapsible=1;marginBottom=0;rounded=0;shadow=0;strokeWidth=1;labelBackgroundColor=default;" parent="smeWoDBhxwMaDhyixX8N-74" vertex="1">
          <mxGeometry x="18.133333333333333" y="72.54098360655738" width="275.2" height="213.9344262295082" as="geometry">
            <mxRectangle x="230" y="140" width="160" height="26" as="alternateBounds" />
          </mxGeometry>
        </mxCell>
        <mxCell id="smeWoDBhxwMaDhyixX8N-65" value="- Value:int" style="text;align=left;verticalAlign=top;spacingLeft=4;spacingRight=4;overflow=hidden;rotatable=0;points=[[0,0.5],[1,0.5]];portConstraint=eastwest;rounded=0;shadow=0;html=0;" parent="smeWoDBhxwMaDhyixX8N-64" vertex="1">
          <mxGeometry y="26" width="275.2" height="31.9672131147541" as="geometry" />
        </mxCell>
        <mxCell id="smeWoDBhxwMaDhyixX8N-68" value="" style="line;html=1;strokeWidth=1;align=left;verticalAlign=middle;spacingTop=-1;spacingLeft=3;spacingRight=3;rotatable=0;labelPosition=right;points=[];portConstraint=eastwest;" parent="smeWoDBhxwMaDhyixX8N-64" vertex="1">
          <mxGeometry y="57.9672131147541" width="275.2" height="22.13114754098361" as="geometry" />
        </mxCell>
        <mxCell id="smeWoDBhxwMaDhyixX8N-69" value="- static implicit operator(Duration d):int" style="text;align=left;verticalAlign=top;spacingLeft=4;spacingRight=4;overflow=hidden;rotatable=0;points=[[0,0.5],[1,0.5]];portConstraint=eastwest;rounded=0;shadow=0;html=0;" parent="smeWoDBhxwMaDhyixX8N-64" vertex="1">
          <mxGeometry y="80.09836065573771" width="275.2" height="31.9672131147541" as="geometry" />
        </mxCell>
        <mxCell id="smeWoDBhxwMaDhyixX8N-72" value="- static implicit operator (int value):Duration" style="text;align=left;verticalAlign=top;spacingLeft=4;spacingRight=4;overflow=hidden;rotatable=0;points=[[0,0.5],[1,0.5]];portConstraint=eastwest;rounded=0;shadow=0;html=0;" parent="smeWoDBhxwMaDhyixX8N-64" vertex="1">
          <mxGeometry y="112.06557377049181" width="275.2" height="31.9672131147541" as="geometry" />
        </mxCell>
        <mxCell id="smeWoDBhxwMaDhyixX8N-73" value="- Duration(int value)" style="text;align=left;verticalAlign=top;spacingLeft=4;spacingRight=4;overflow=hidden;rotatable=0;points=[[0,0.5],[1,0.5]];portConstraint=eastwest;rounded=0;shadow=0;html=0;" parent="smeWoDBhxwMaDhyixX8N-64" vertex="1">
          <mxGeometry y="144.0327868852459" width="275.2" height="31.9672131147541" as="geometry" />
        </mxCell>
        <mxCell id="smeWoDBhxwMaDhyixX8N-71" value="- Formatted_ptBr():String" style="text;align=left;verticalAlign=top;spacingLeft=4;spacingRight=4;overflow=hidden;rotatable=0;points=[[0,0.5],[1,0.5]];portConstraint=eastwest;rounded=0;shadow=0;html=0;" parent="smeWoDBhxwMaDhyixX8N-64" vertex="1">
          <mxGeometry y="176" width="275.2" height="31.9672131147541" as="geometry" />
        </mxCell>
        <mxCell id="smeWoDBhxwMaDhyixX8N-85" value="Monetary" style="swimlane;fontStyle=2;align=center;verticalAlign=top;childLayout=stackLayout;horizontal=1;startSize=26;horizontalStack=0;resizeParent=1;resizeLast=0;collapsible=1;marginBottom=0;rounded=0;shadow=0;strokeWidth=1;labelBackgroundColor=default;" parent="smeWoDBhxwMaDhyixX8N-74" vertex="1">
          <mxGeometry x="18.133333333333333" y="397.05936595949856" width="275.2" height="213.9344262295082" as="geometry">
            <mxRectangle x="230" y="140" width="160" height="26" as="alternateBounds" />
          </mxGeometry>
        </mxCell>
        <mxCell id="smeWoDBhxwMaDhyixX8N-86" value="- Value:decimal" style="text;align=left;verticalAlign=top;spacingLeft=4;spacingRight=4;overflow=hidden;rotatable=0;points=[[0,0.5],[1,0.5]];portConstraint=eastwest;rounded=0;shadow=0;html=0;" parent="smeWoDBhxwMaDhyixX8N-85" vertex="1">
          <mxGeometry y="26" width="275.2" height="31.9672131147541" as="geometry" />
        </mxCell>
        <mxCell id="smeWoDBhxwMaDhyixX8N-87" value="" style="line;html=1;strokeWidth=1;align=left;verticalAlign=middle;spacingTop=-1;spacingLeft=3;spacingRight=3;rotatable=0;labelPosition=right;points=[];portConstraint=eastwest;" parent="smeWoDBhxwMaDhyixX8N-85" vertex="1">
          <mxGeometry y="57.9672131147541" width="275.2" height="22.13114754098361" as="geometry" />
        </mxCell>
        <mxCell id="smeWoDBhxwMaDhyixX8N-88" value="- static implicit operator (Monetary d):decimal" style="text;align=left;verticalAlign=top;spacingLeft=4;spacingRight=4;overflow=hidden;rotatable=0;points=[[0,0.5],[1,0.5]];portConstraint=eastwest;rounded=0;shadow=0;html=0;" parent="smeWoDBhxwMaDhyixX8N-85" vertex="1">
          <mxGeometry y="80.09836065573771" width="275.2" height="31.9672131147541" as="geometry" />
        </mxCell>
        <mxCell id="smeWoDBhxwMaDhyixX8N-89" value="- static implicit operator (decimal value):Monetary" style="text;align=left;verticalAlign=top;spacingLeft=4;spacingRight=4;overflow=hidden;rotatable=0;points=[[0,0.5],[1,0.5]];portConstraint=eastwest;rounded=0;shadow=0;html=0;" parent="smeWoDBhxwMaDhyixX8N-85" vertex="1">
          <mxGeometry y="112.06557377049181" width="275.2" height="31.9672131147541" as="geometry" />
        </mxCell>
        <mxCell id="smeWoDBhxwMaDhyixX8N-90" value="- Monetary(Decimal value)" style="text;align=left;verticalAlign=top;spacingLeft=4;spacingRight=4;overflow=hidden;rotatable=0;points=[[0,0.5],[1,0.5]];portConstraint=eastwest;rounded=0;shadow=0;html=0;" parent="smeWoDBhxwMaDhyixX8N-85" vertex="1">
          <mxGeometry y="144.0327868852459" width="275.2" height="31.9672131147541" as="geometry" />
        </mxCell>
        <mxCell id="smeWoDBhxwMaDhyixX8N-91" value="- Formatted_ptBr():String" style="text;align=left;verticalAlign=top;spacingLeft=4;spacingRight=4;overflow=hidden;rotatable=0;points=[[0,0.5],[1,0.5]];portConstraint=eastwest;rounded=0;shadow=0;html=0;" parent="smeWoDBhxwMaDhyixX8N-85" vertex="1">
          <mxGeometry y="176" width="275.2" height="31.9672131147541" as="geometry" />
        </mxCell>
        <mxCell id="smeWoDBhxwMaDhyixX8N-28" value="" style="group" parent="1" vertex="1" connectable="0">
          <mxGeometry x="12.5" y="30" width="180" height="330" as="geometry" />
        </mxCell>
        <mxCell id="smeWoDBhxwMaDhyixX8N-25" value="Account" style="verticalAlign=top;align=left;spacingTop=8;spacingLeft=2;spacingRight=12;shape=cube;size=10;direction=south;fontStyle=4;html=1;whiteSpace=wrap;" parent="smeWoDBhxwMaDhyixX8N-28" vertex="1">
          <mxGeometry width="170" height="330" as="geometry" />
        </mxCell>
        <mxCell id="smeWoDBhxwMaDhyixX8N-26" value="Customer" style="html=1;whiteSpace=wrap;" parent="smeWoDBhxwMaDhyixX8N-28" vertex="1">
          <mxGeometry x="27.5" y="139.58333333333334" width="110" height="64.58333333333334" as="geometry" />
        </mxCell>
        <mxCell id="smeWoDBhxwMaDhyixX8N-27" value="PlaylistPersonal" style="html=1;whiteSpace=wrap;" parent="smeWoDBhxwMaDhyixX8N-28" vertex="1">
          <mxGeometry x="27.5" y="37.916666666666686" width="110" height="64.58333333333334" as="geometry" />
        </mxCell>
        <mxCell id="smeWoDBhxwMaDhyixX8N-125" value="Merchant" style="html=1;whiteSpace=wrap;" parent="smeWoDBhxwMaDhyixX8N-28" vertex="1">
          <mxGeometry x="28" y="240.00333333333333" width="110" height="64.58333333333334" as="geometry" />
        </mxCell>
        <mxCell id="smeWoDBhxwMaDhyixX8N-62" value="1" style="group" parent="1" vertex="1" connectable="0">
          <mxGeometry x="200" y="30" width="820" height="750" as="geometry" />
        </mxCell>
        <mxCell id="smeWoDBhxwMaDhyixX8N-23" value="Streaming&lt;br&gt;&lt;br&gt;" style="verticalAlign=top;align=left;spacingTop=8;spacingLeft=2;spacingRight=12;shape=cube;size=10;direction=south;fontStyle=4;html=1;whiteSpace=wrap;" parent="smeWoDBhxwMaDhyixX8N-62" vertex="1">
          <mxGeometry width="820" height="750" as="geometry" />
        </mxCell>
        <mxCell id="oiJqAKb3dmMCB8TSc90F-14" style="edgeStyle=orthogonalEdgeStyle;rounded=0;orthogonalLoop=1;jettySize=auto;html=1;" edge="1" parent="smeWoDBhxwMaDhyixX8N-62" source="smeWoDBhxwMaDhyixX8N-29" target="oiJqAKb3dmMCB8TSc90F-1">
          <mxGeometry relative="1" as="geometry">
            <Array as="points">
              <mxPoint x="193" y="40" />
              <mxPoint x="760" y="40" />
            </Array>
          </mxGeometry>
        </mxCell>
        <mxCell id="oiJqAKb3dmMCB8TSc90F-15" value="n" style="edgeLabel;html=1;align=center;verticalAlign=middle;resizable=0;points=[];rotation=90;" vertex="1" connectable="0" parent="oiJqAKb3dmMCB8TSc90F-14">
          <mxGeometry x="0.9371" y="-2" relative="1" as="geometry">
            <mxPoint x="2" as="offset" />
          </mxGeometry>
        </mxCell>
        <mxCell id="oiJqAKb3dmMCB8TSc90F-16" value="1" style="edgeLabel;html=1;align=center;verticalAlign=middle;resizable=0;points=[];" vertex="1" connectable="0" parent="oiJqAKb3dmMCB8TSc90F-14">
          <mxGeometry x="-0.9773" y="3" relative="1" as="geometry">
            <mxPoint x="2" as="offset" />
          </mxGeometry>
        </mxCell>
        <mxCell id="smeWoDBhxwMaDhyixX8N-29" value="Album" style="swimlane;fontStyle=2;align=center;verticalAlign=top;childLayout=stackLayout;horizontal=1;startSize=26;horizontalStack=0;resizeParent=1;resizeLast=0;collapsible=1;marginBottom=0;rounded=0;shadow=0;strokeWidth=1;labelBackgroundColor=default;" parent="smeWoDBhxwMaDhyixX8N-62" vertex="1">
          <mxGeometry x="40.29446455505279" y="77.9032258064516" width="305.0528657616893" height="254.8548387096774" as="geometry">
            <mxRectangle x="230" y="140" width="160" height="26" as="alternateBounds" />
          </mxGeometry>
        </mxCell>
        <mxCell id="smeWoDBhxwMaDhyixX8N-30" value="- Name:string " style="text;align=left;verticalAlign=top;spacingLeft=4;spacingRight=4;overflow=hidden;rotatable=0;points=[[0,0.5],[1,0.5]];portConstraint=eastwest;rounded=0;shadow=0;html=0;" parent="smeWoDBhxwMaDhyixX8N-29" vertex="1">
          <mxGeometry y="26" width="305.0528657616893" height="28.93548387096774" as="geometry" />
        </mxCell>
        <mxCell id="smeWoDBhxwMaDhyixX8N-45" value="- Music:List&lt;Music&lt;Playlist&gt;&gt;" style="text;align=left;verticalAlign=top;spacingLeft=4;spacingRight=4;overflow=hidden;rotatable=0;points=[[0,0.5],[1,0.5]];portConstraint=eastwest;rounded=0;shadow=0;html=0;" parent="smeWoDBhxwMaDhyixX8N-29" vertex="1">
          <mxGeometry y="54.935483870967744" width="305.0528657616893" height="28.93548387096774" as="geometry" />
        </mxCell>
        <mxCell id="smeWoDBhxwMaDhyixX8N-48" value="- MusicPersonal:List&lt;Music&lt;PlaylistPersonal&gt;&gt;" style="text;align=left;verticalAlign=top;spacingLeft=4;spacingRight=4;overflow=hidden;rotatable=0;points=[[0,0.5],[1,0.5]];portConstraint=eastwest;rounded=0;shadow=0;html=0;" parent="smeWoDBhxwMaDhyixX8N-29" vertex="1">
          <mxGeometry y="83.87096774193549" width="305.0528657616893" height="28.93548387096774" as="geometry" />
        </mxCell>
        <mxCell id="smeWoDBhxwMaDhyixX8N-31" value="" style="line;html=1;strokeWidth=1;align=left;verticalAlign=middle;spacingTop=-1;spacingLeft=3;spacingRight=3;rotatable=0;labelPosition=right;points=[];portConstraint=eastwest;" parent="smeWoDBhxwMaDhyixX8N-29" vertex="1">
          <mxGeometry y="112.80645161290323" width="305.0528657616893" height="20.032258064516128" as="geometry" />
        </mxCell>
        <mxCell id="smeWoDBhxwMaDhyixX8N-46" value="- AddMusic(Music&lt;Playlist&gt; music):void" style="text;align=left;verticalAlign=top;spacingLeft=4;spacingRight=4;overflow=hidden;rotatable=0;points=[[0,0.5],[1,0.5]];portConstraint=eastwest;rounded=0;shadow=0;html=0;" parent="smeWoDBhxwMaDhyixX8N-29" vertex="1">
          <mxGeometry y="132.83870967741936" width="305.0528657616893" height="28.93548387096774" as="geometry" />
        </mxCell>
        <mxCell id="smeWoDBhxwMaDhyixX8N-49" value="- AddMusic(List&lt;Music&lt;Playlist&gt;&gt; music):void" style="text;align=left;verticalAlign=top;spacingLeft=4;spacingRight=4;overflow=hidden;rotatable=0;points=[[0,0.5],[1,0.5]];portConstraint=eastwest;rounded=0;shadow=0;html=0;" parent="smeWoDBhxwMaDhyixX8N-29" vertex="1">
          <mxGeometry y="161.7741935483871" width="305.0528657616893" height="28.93548387096774" as="geometry" />
        </mxCell>
        <mxCell id="smeWoDBhxwMaDhyixX8N-50" value="- AddMusic(Music&lt;PlaylistPersonal&gt; music):void" style="text;align=left;verticalAlign=top;spacingLeft=4;spacingRight=4;overflow=hidden;rotatable=0;points=[[0,0.5],[1,0.5]];portConstraint=eastwest;rounded=0;shadow=0;html=0;" parent="smeWoDBhxwMaDhyixX8N-29" vertex="1">
          <mxGeometry y="190.70967741935485" width="305.0528657616893" height="28.93548387096774" as="geometry" />
        </mxCell>
        <mxCell id="smeWoDBhxwMaDhyixX8N-47" value="- AddMusic(List&lt;Music&lt;PlaylistPersonal&gt;&gt; music):void" style="text;align=left;verticalAlign=top;spacingLeft=4;spacingRight=4;overflow=hidden;rotatable=0;points=[[0,0.5],[1,0.5]];portConstraint=eastwest;rounded=0;shadow=0;html=0;" parent="smeWoDBhxwMaDhyixX8N-29" vertex="1">
          <mxGeometry y="219.6451612903226" width="305.0528657616893" height="28.93548387096774" as="geometry" />
        </mxCell>
        <mxCell id="oiJqAKb3dmMCB8TSc90F-11" style="edgeStyle=orthogonalEdgeStyle;rounded=0;orthogonalLoop=1;jettySize=auto;html=1;" edge="1" parent="smeWoDBhxwMaDhyixX8N-62" source="smeWoDBhxwMaDhyixX8N-32" target="oiJqAKb3dmMCB8TSc90F-1">
          <mxGeometry relative="1" as="geometry">
            <Array as="points">
              <mxPoint x="600" y="500" />
              <mxPoint x="600" y="500" />
            </Array>
          </mxGeometry>
        </mxCell>
        <mxCell id="oiJqAKb3dmMCB8TSc90F-12" value="1" style="edgeLabel;html=1;align=center;verticalAlign=middle;resizable=0;points=[];" vertex="1" connectable="0" parent="oiJqAKb3dmMCB8TSc90F-11">
          <mxGeometry x="-0.5532" y="1" relative="1" as="geometry">
            <mxPoint as="offset" />
          </mxGeometry>
        </mxCell>
        <mxCell id="oiJqAKb3dmMCB8TSc90F-13" value="n" style="edgeLabel;html=1;align=center;verticalAlign=middle;resizable=0;points=[];" vertex="1" connectable="0" parent="oiJqAKb3dmMCB8TSc90F-11">
          <mxGeometry x="0.5786" y="1" relative="1" as="geometry">
            <mxPoint as="offset" />
          </mxGeometry>
        </mxCell>
        <mxCell id="smeWoDBhxwMaDhyixX8N-32" value="Band" style="swimlane;fontStyle=2;align=center;verticalAlign=top;childLayout=stackLayout;horizontal=1;startSize=26;horizontalStack=0;resizeParent=1;resizeLast=0;collapsible=1;marginBottom=0;rounded=0;shadow=0;strokeWidth=1;labelBackgroundColor=default;" parent="smeWoDBhxwMaDhyixX8N-62" vertex="1">
          <mxGeometry x="362.67907993966816" y="439.51612903225805" width="180.79548717948717" height="193.64516129032256" as="geometry">
            <mxRectangle x="230" y="140" width="160" height="26" as="alternateBounds" />
          </mxGeometry>
        </mxCell>
        <mxCell id="smeWoDBhxwMaDhyixX8N-33" value="- Name:string" style="text;align=left;verticalAlign=top;spacingLeft=4;spacingRight=4;overflow=hidden;rotatable=0;points=[[0,0.5],[1,0.5]];portConstraint=eastwest;rounded=0;shadow=0;html=0;" parent="smeWoDBhxwMaDhyixX8N-32" vertex="1">
          <mxGeometry y="26" width="180.79548717948717" height="28.93548387096774" as="geometry" />
        </mxCell>
        <mxCell id="smeWoDBhxwMaDhyixX8N-56" value="- Description:string" style="text;align=left;verticalAlign=top;spacingLeft=4;spacingRight=4;overflow=hidden;rotatable=0;points=[[0,0.5],[1,0.5]];portConstraint=eastwest;rounded=0;shadow=0;html=0;" parent="smeWoDBhxwMaDhyixX8N-32" vertex="1">
          <mxGeometry y="54.935483870967744" width="180.79548717948717" height="28.93548387096774" as="geometry" />
        </mxCell>
        <mxCell id="smeWoDBhxwMaDhyixX8N-58" value="- Backdrop:string" style="text;align=left;verticalAlign=top;spacingLeft=4;spacingRight=4;overflow=hidden;rotatable=0;points=[[0,0.5],[1,0.5]];portConstraint=eastwest;rounded=0;shadow=0;html=0;" parent="smeWoDBhxwMaDhyixX8N-32" vertex="1">
          <mxGeometry y="83.87096774193549" width="180.79548717948717" height="24.483870967741932" as="geometry" />
        </mxCell>
        <mxCell id="smeWoDBhxwMaDhyixX8N-57" value="- Albums:List&lt;Album&gt;" style="text;align=left;verticalAlign=top;spacingLeft=4;spacingRight=4;overflow=hidden;rotatable=0;points=[[0,0.5],[1,0.5]];portConstraint=eastwest;rounded=0;shadow=0;html=0;" parent="smeWoDBhxwMaDhyixX8N-32" vertex="1">
          <mxGeometry y="108.35483870967742" width="180.79548717948717" height="28.93548387096774" as="geometry" />
        </mxCell>
        <mxCell id="smeWoDBhxwMaDhyixX8N-34" value="" style="line;html=1;strokeWidth=1;align=left;verticalAlign=middle;spacingTop=-1;spacingLeft=3;spacingRight=3;rotatable=0;labelPosition=right;points=[];portConstraint=eastwest;" parent="smeWoDBhxwMaDhyixX8N-32" vertex="1">
          <mxGeometry y="137.29032258064515" width="180.79548717948717" height="20.032258064516128" as="geometry" />
        </mxCell>
        <mxCell id="smeWoDBhxwMaDhyixX8N-59" value="-AddAlbum(Album album):void" style="text;align=left;verticalAlign=top;spacingLeft=4;spacingRight=4;overflow=hidden;rotatable=0;points=[[0,0.5],[1,0.5]];portConstraint=eastwest;rounded=0;shadow=0;html=0;" parent="smeWoDBhxwMaDhyixX8N-32" vertex="1">
          <mxGeometry y="157.32258064516128" width="180.79548717948717" height="28.93548387096774" as="geometry" />
        </mxCell>
        <mxCell id="smeWoDBhxwMaDhyixX8N-35" value="Flat" style="swimlane;fontStyle=2;align=center;verticalAlign=top;childLayout=stackLayout;horizontal=1;startSize=26;horizontalStack=0;resizeParent=1;resizeLast=0;collapsible=1;marginBottom=0;rounded=0;shadow=0;strokeWidth=1;labelBackgroundColor=default;" parent="smeWoDBhxwMaDhyixX8N-62" vertex="1">
          <mxGeometry x="72.73549019607843" y="419.99612903225807" width="142.40158371040724" height="135.77419354838707" as="geometry">
            <mxRectangle x="230" y="140" width="160" height="26" as="alternateBounds" />
          </mxGeometry>
        </mxCell>
        <mxCell id="smeWoDBhxwMaDhyixX8N-36" value="- Name:string" style="text;align=left;verticalAlign=top;spacingLeft=4;spacingRight=4;overflow=hidden;rotatable=0;points=[[0,0.5],[1,0.5]];portConstraint=eastwest;rounded=0;shadow=0;html=0;" parent="smeWoDBhxwMaDhyixX8N-35" vertex="1">
          <mxGeometry y="26" width="142.40158371040724" height="28.93548387096774" as="geometry" />
        </mxCell>
        <mxCell id="smeWoDBhxwMaDhyixX8N-51" value="- Description:string" style="text;align=left;verticalAlign=top;spacingLeft=4;spacingRight=4;overflow=hidden;rotatable=0;points=[[0,0.5],[1,0.5]];portConstraint=eastwest;rounded=0;shadow=0;html=0;" parent="smeWoDBhxwMaDhyixX8N-35" vertex="1">
          <mxGeometry y="54.935483870967744" width="142.40158371040724" height="28.93548387096774" as="geometry" />
        </mxCell>
        <mxCell id="smeWoDBhxwMaDhyixX8N-52" value="- Value:Monetary" style="text;align=left;verticalAlign=top;spacingLeft=4;spacingRight=4;overflow=hidden;rotatable=0;points=[[0,0.5],[1,0.5]];portConstraint=eastwest;rounded=0;shadow=0;html=0;" parent="smeWoDBhxwMaDhyixX8N-35" vertex="1">
          <mxGeometry y="83.87096774193549" width="142.40158371040724" height="28.93548387096774" as="geometry" />
        </mxCell>
        <mxCell id="smeWoDBhxwMaDhyixX8N-37" value="" style="line;html=1;strokeWidth=1;align=left;verticalAlign=middle;spacingTop=-1;spacingLeft=3;spacingRight=3;rotatable=0;labelPosition=right;points=[];portConstraint=eastwest;" parent="smeWoDBhxwMaDhyixX8N-35" vertex="1">
          <mxGeometry y="112.80645161290323" width="142.40158371040724" height="20.032258064516128" as="geometry" />
        </mxCell>
        <mxCell id="oiJqAKb3dmMCB8TSc90F-20" style="edgeStyle=orthogonalEdgeStyle;rounded=0;orthogonalLoop=1;jettySize=auto;html=1;" edge="1" parent="smeWoDBhxwMaDhyixX8N-62">
          <mxGeometry relative="1" as="geometry">
            <mxPoint x="695" y="213.67741935483855" as="sourcePoint" />
            <mxPoint x="695" y="442.8800000000001" as="targetPoint" />
            <Array as="points">
              <mxPoint x="695" y="260" />
              <mxPoint x="695" y="260" />
            </Array>
          </mxGeometry>
        </mxCell>
        <mxCell id="oiJqAKb3dmMCB8TSc90F-21" value="1" style="edgeLabel;html=1;align=center;verticalAlign=middle;resizable=0;points=[];" vertex="1" connectable="0" parent="oiJqAKb3dmMCB8TSc90F-20">
          <mxGeometry x="-0.8496" y="-2" relative="1" as="geometry">
            <mxPoint as="offset" />
          </mxGeometry>
        </mxCell>
        <mxCell id="smeWoDBhxwMaDhyixX8N-38" value="Playlist" style="swimlane;fontStyle=2;align=center;verticalAlign=top;childLayout=stackLayout;horizontal=1;startSize=26;horizontalStack=0;resizeParent=1;resizeLast=0;collapsible=1;marginBottom=0;rounded=0;shadow=0;strokeWidth=1;labelBackgroundColor=default;" parent="smeWoDBhxwMaDhyixX8N-62" vertex="1">
          <mxGeometry x="543.4745671191554" y="77.9032258064516" width="181.80158371040724" height="135.77419354838707" as="geometry">
            <mxRectangle x="230" y="140" width="160" height="26" as="alternateBounds" />
          </mxGeometry>
        </mxCell>
        <mxCell id="smeWoDBhxwMaDhyixX8N-39" value="- Name:string" style="text;align=left;verticalAlign=top;spacingLeft=4;spacingRight=4;overflow=hidden;rotatable=0;points=[[0,0.5],[1,0.5]];portConstraint=eastwest;rounded=0;shadow=0;html=0;" parent="smeWoDBhxwMaDhyixX8N-38" vertex="1">
          <mxGeometry y="26" width="181.80158371040724" height="28.93548387096774" as="geometry" />
        </mxCell>
        <mxCell id="smeWoDBhxwMaDhyixX8N-60" value="- Flat:Flat" style="text;align=left;verticalAlign=top;spacingLeft=4;spacingRight=4;overflow=hidden;rotatable=0;points=[[0,0.5],[1,0.5]];portConstraint=eastwest;rounded=0;shadow=0;html=0;" parent="smeWoDBhxwMaDhyixX8N-38" vertex="1">
          <mxGeometry y="54.935483870967744" width="181.80158371040724" height="28.93548387096774" as="geometry" />
        </mxCell>
        <mxCell id="smeWoDBhxwMaDhyixX8N-61" value="- MusicsList&lt;Music&lt;Playlist&gt;&gt;" style="text;align=left;verticalAlign=top;spacingLeft=4;spacingRight=4;overflow=hidden;rotatable=0;points=[[0,0.5],[1,0.5]];portConstraint=eastwest;rounded=0;shadow=0;html=0;" parent="smeWoDBhxwMaDhyixX8N-38" vertex="1">
          <mxGeometry y="83.87096774193549" width="181.80158371040724" height="28.93548387096774" as="geometry" />
        </mxCell>
        <mxCell id="smeWoDBhxwMaDhyixX8N-40" value="" style="line;html=1;strokeWidth=1;align=left;verticalAlign=middle;spacingTop=-1;spacingLeft=3;spacingRight=3;rotatable=0;labelPosition=right;points=[];portConstraint=eastwest;" parent="smeWoDBhxwMaDhyixX8N-38" vertex="1">
          <mxGeometry y="112.80645161290323" width="181.80158371040724" height="20.032258064516128" as="geometry" />
        </mxCell>
        <mxCell id="smeWoDBhxwMaDhyixX8N-137" style="edgeStyle=orthogonalEdgeStyle;rounded=0;orthogonalLoop=1;jettySize=auto;html=1;entryX=1;entryY=0.5;entryDx=0;entryDy=0;" parent="smeWoDBhxwMaDhyixX8N-62" source="smeWoDBhxwMaDhyixX8N-41" target="smeWoDBhxwMaDhyixX8N-50" edge="1">
          <mxGeometry relative="1" as="geometry">
            <Array as="points">
              <mxPoint x="410" y="283" />
            </Array>
          </mxGeometry>
        </mxCell>
        <mxCell id="smeWoDBhxwMaDhyixX8N-141" value="n" style="edgeLabel;html=1;align=center;verticalAlign=middle;resizable=0;points=[];" parent="smeWoDBhxwMaDhyixX8N-137" vertex="1" connectable="0">
          <mxGeometry x="0.6472" y="1" relative="1" as="geometry">
            <mxPoint as="offset" />
          </mxGeometry>
        </mxCell>
        <mxCell id="smeWoDBhxwMaDhyixX8N-142" value="1" style="edgeLabel;html=1;align=center;verticalAlign=middle;resizable=0;points=[];" parent="smeWoDBhxwMaDhyixX8N-137" vertex="1" connectable="0">
          <mxGeometry x="-0.7864" y="3" relative="1" as="geometry">
            <mxPoint x="-4" as="offset" />
          </mxGeometry>
        </mxCell>
        <mxCell id="oiJqAKb3dmMCB8TSc90F-17" style="edgeStyle=orthogonalEdgeStyle;rounded=0;orthogonalLoop=1;jettySize=auto;html=1;" edge="1" parent="smeWoDBhxwMaDhyixX8N-62">
          <mxGeometry relative="1" as="geometry">
            <mxPoint x="435" y="213.67741935483855" as="sourcePoint" />
            <mxPoint x="695" y="442.8800000000001" as="targetPoint" />
            <Array as="points">
              <mxPoint x="435" y="380" />
              <mxPoint x="695" y="380" />
            </Array>
          </mxGeometry>
        </mxCell>
        <mxCell id="oiJqAKb3dmMCB8TSc90F-18" value="1" style="edgeLabel;html=1;align=center;verticalAlign=middle;resizable=0;points=[];" vertex="1" connectable="0" parent="oiJqAKb3dmMCB8TSc90F-17">
          <mxGeometry x="-0.8852" y="1" relative="1" as="geometry">
            <mxPoint as="offset" />
          </mxGeometry>
        </mxCell>
        <mxCell id="oiJqAKb3dmMCB8TSc90F-19" value="n" style="edgeLabel;html=1;align=center;verticalAlign=middle;resizable=0;points=[];" vertex="1" connectable="0" parent="oiJqAKb3dmMCB8TSc90F-17">
          <mxGeometry x="0.8992" y="-2" relative="1" as="geometry">
            <mxPoint as="offset" />
          </mxGeometry>
        </mxCell>
        <mxCell id="smeWoDBhxwMaDhyixX8N-41" value="Music&lt;T&gt;" style="swimlane;fontStyle=2;align=center;verticalAlign=top;childLayout=stackLayout;horizontal=1;startSize=26;horizontalStack=0;resizeParent=1;resizeLast=0;collapsible=1;marginBottom=0;rounded=0;shadow=0;strokeWidth=1;labelBackgroundColor=default;" parent="smeWoDBhxwMaDhyixX8N-62" vertex="1">
          <mxGeometry x="362.67907993966816" y="77.9032258064516" width="142.40158371040724" height="135.77419354838707" as="geometry">
            <mxRectangle x="230" y="140" width="160" height="26" as="alternateBounds" />
          </mxGeometry>
        </mxCell>
        <mxCell id="smeWoDBhxwMaDhyixX8N-42" value="- Name:string" style="text;align=left;verticalAlign=top;spacingLeft=4;spacingRight=4;overflow=hidden;rotatable=0;points=[[0,0.5],[1,0.5]];portConstraint=eastwest;rounded=0;shadow=0;html=0;" parent="smeWoDBhxwMaDhyixX8N-41" vertex="1">
          <mxGeometry y="26" width="142.40158371040724" height="28.93548387096774" as="geometry" />
        </mxCell>
        <mxCell id="smeWoDBhxwMaDhyixX8N-53" value="-Duration:Duration" style="text;align=left;verticalAlign=top;spacingLeft=4;spacingRight=4;overflow=hidden;rotatable=0;points=[[0,0.5],[1,0.5]];portConstraint=eastwest;rounded=0;shadow=0;html=0;" parent="smeWoDBhxwMaDhyixX8N-41" vertex="1">
          <mxGeometry y="54.935483870967744" width="142.40158371040724" height="28.93548387096774" as="geometry" />
        </mxCell>
        <mxCell id="smeWoDBhxwMaDhyixX8N-54" value="- Playlists:List&lt;T&gt;" style="text;align=left;verticalAlign=top;spacingLeft=4;spacingRight=4;overflow=hidden;rotatable=0;points=[[0,0.5],[1,0.5]];portConstraint=eastwest;rounded=0;shadow=0;html=0;" parent="smeWoDBhxwMaDhyixX8N-41" vertex="1">
          <mxGeometry y="83.87096774193549" width="142.40158371040724" height="28.93548387096774" as="geometry" />
        </mxCell>
        <mxCell id="smeWoDBhxwMaDhyixX8N-43" value="" style="line;html=1;strokeWidth=1;align=left;verticalAlign=middle;spacingTop=-1;spacingLeft=3;spacingRight=3;rotatable=0;labelPosition=right;points=[];portConstraint=eastwest;" parent="smeWoDBhxwMaDhyixX8N-41" vertex="1">
          <mxGeometry y="112.80645161290323" width="142.40158371040724" height="20.032258064516128" as="geometry" />
        </mxCell>
        <mxCell id="smeWoDBhxwMaDhyixX8N-104" style="edgeStyle=orthogonalEdgeStyle;rounded=0;orthogonalLoop=1;jettySize=auto;html=1;" parent="smeWoDBhxwMaDhyixX8N-62" source="smeWoDBhxwMaDhyixX8N-53" target="smeWoDBhxwMaDhyixX8N-60" edge="1">
          <mxGeometry relative="1" as="geometry" />
        </mxCell>
        <mxCell id="smeWoDBhxwMaDhyixX8N-105" value="n" style="edgeLabel;html=1;align=center;verticalAlign=middle;resizable=0;points=[];" parent="smeWoDBhxwMaDhyixX8N-104" vertex="1" connectable="0">
          <mxGeometry x="-0.4264" y="-1" relative="1" as="geometry">
            <mxPoint x="-3" y="-1" as="offset" />
          </mxGeometry>
        </mxCell>
        <mxCell id="smeWoDBhxwMaDhyixX8N-106" value="n" style="edgeLabel;html=1;align=center;verticalAlign=middle;resizable=0;points=[];" parent="smeWoDBhxwMaDhyixX8N-104" vertex="1" connectable="0">
          <mxGeometry x="0.5735" y="3" relative="1" as="geometry">
            <mxPoint x="-4" y="2" as="offset" />
          </mxGeometry>
        </mxCell>
        <mxCell id="smeWoDBhxwMaDhyixX8N-110" style="edgeStyle=orthogonalEdgeStyle;rounded=0;orthogonalLoop=1;jettySize=auto;html=1;" parent="smeWoDBhxwMaDhyixX8N-62" source="smeWoDBhxwMaDhyixX8N-35" target="smeWoDBhxwMaDhyixX8N-38" edge="1">
          <mxGeometry relative="1" as="geometry">
            <Array as="points">
              <mxPoint x="560" y="430" />
            </Array>
          </mxGeometry>
        </mxCell>
        <mxCell id="smeWoDBhxwMaDhyixX8N-111" value="1" style="edgeLabel;html=1;align=center;verticalAlign=middle;resizable=0;points=[];" parent="smeWoDBhxwMaDhyixX8N-110" vertex="1" connectable="0">
          <mxGeometry x="-0.9159" y="-1" relative="1" as="geometry">
            <mxPoint as="offset" />
          </mxGeometry>
        </mxCell>
        <mxCell id="smeWoDBhxwMaDhyixX8N-112" value="n" style="edgeLabel;html=1;align=center;verticalAlign=middle;resizable=0;points=[];" parent="smeWoDBhxwMaDhyixX8N-110" vertex="1" connectable="0">
          <mxGeometry x="0.8981" relative="1" as="geometry">
            <mxPoint as="offset" />
          </mxGeometry>
        </mxCell>
        <mxCell id="smeWoDBhxwMaDhyixX8N-115" style="edgeStyle=orthogonalEdgeStyle;rounded=0;orthogonalLoop=1;jettySize=auto;html=1;" parent="smeWoDBhxwMaDhyixX8N-62" source="smeWoDBhxwMaDhyixX8N-29" edge="1">
          <mxGeometry relative="1" as="geometry">
            <mxPoint x="283.8820512820513" y="332.758064516129" as="sourcePoint" />
            <mxPoint x="361.6688235294118" y="536" as="targetPoint" />
            <Array as="points">
              <mxPoint x="284" y="536" />
            </Array>
          </mxGeometry>
        </mxCell>
        <mxCell id="smeWoDBhxwMaDhyixX8N-116" value="1" style="edgeLabel;html=1;align=center;verticalAlign=middle;resizable=0;points=[];" parent="smeWoDBhxwMaDhyixX8N-115" vertex="1" connectable="0">
          <mxGeometry x="0.8573" y="2" relative="1" as="geometry">
            <mxPoint as="offset" />
          </mxGeometry>
        </mxCell>
        <mxCell id="smeWoDBhxwMaDhyixX8N-117" value="n" style="edgeLabel;html=1;align=center;verticalAlign=middle;resizable=0;points=[];" parent="smeWoDBhxwMaDhyixX8N-115" vertex="1" connectable="0">
          <mxGeometry x="-0.8912" y="-4" relative="1" as="geometry">
            <mxPoint x="2" as="offset" />
          </mxGeometry>
        </mxCell>
        <mxCell id="smeWoDBhxwMaDhyixX8N-80" style="edgeStyle=orthogonalEdgeStyle;rounded=0;orthogonalLoop=1;jettySize=auto;html=1;" parent="smeWoDBhxwMaDhyixX8N-62" edge="1" source="smeWoDBhxwMaDhyixX8N-64">
          <mxGeometry relative="1" as="geometry">
            <mxPoint x="912.94" y="259.7377049180327" as="sourcePoint" />
            <mxPoint x="459.99882352941177" y="213.67741935483855" as="targetPoint" />
            <Array as="points">
              <mxPoint x="913" y="320" />
              <mxPoint x="460" y="320" />
            </Array>
          </mxGeometry>
        </mxCell>
        <mxCell id="smeWoDBhxwMaDhyixX8N-83" value="1" style="edgeLabel;html=1;align=center;verticalAlign=middle;resizable=0;points=[];" parent="smeWoDBhxwMaDhyixX8N-80" vertex="1" connectable="0">
          <mxGeometry x="-0.9088" y="2" relative="1" as="geometry">
            <mxPoint x="-3" as="offset" />
          </mxGeometry>
        </mxCell>
        <mxCell id="smeWoDBhxwMaDhyixX8N-84" value="1" style="edgeLabel;html=1;align=center;verticalAlign=middle;resizable=0;points=[];" parent="smeWoDBhxwMaDhyixX8N-80" vertex="1" connectable="0">
          <mxGeometry x="0.8795" y="-4" relative="1" as="geometry">
            <mxPoint x="-6" as="offset" />
          </mxGeometry>
        </mxCell>
        <mxCell id="oiJqAKb3dmMCB8TSc90F-1" value="Genre" style="swimlane;fontStyle=2;align=center;verticalAlign=top;childLayout=stackLayout;horizontal=1;startSize=26;horizontalStack=0;resizeParent=1;resizeLast=0;collapsible=1;marginBottom=0;rounded=0;shadow=0;strokeWidth=1;labelBackgroundColor=default;" vertex="1" parent="smeWoDBhxwMaDhyixX8N-62">
          <mxGeometry x="610" y="442.88" width="180.8" height="90" as="geometry">
            <mxRectangle x="230" y="140" width="160" height="26" as="alternateBounds" />
          </mxGeometry>
        </mxCell>
        <mxCell id="oiJqAKb3dmMCB8TSc90F-2" value="- Name:string" style="text;align=left;verticalAlign=top;spacingLeft=4;spacingRight=4;overflow=hidden;rotatable=0;points=[[0,0.5],[1,0.5]];portConstraint=eastwest;rounded=0;shadow=0;html=0;" vertex="1" parent="oiJqAKb3dmMCB8TSc90F-1">
          <mxGeometry y="26" width="180.8" height="28.93548387096774" as="geometry" />
        </mxCell>
        <mxCell id="oiJqAKb3dmMCB8TSc90F-6" value="" style="line;html=1;strokeWidth=1;align=left;verticalAlign=middle;spacingTop=-1;spacingLeft=3;spacingRight=3;rotatable=0;labelPosition=right;points=[];portConstraint=eastwest;" vertex="1" parent="oiJqAKb3dmMCB8TSc90F-1">
          <mxGeometry y="54.935483870967744" width="180.8" height="20.032258064516128" as="geometry" />
        </mxCell>
        <mxCell id="smeWoDBhxwMaDhyixX8N-82" value="" style="group" parent="1" vertex="1" connectable="0">
          <mxGeometry x="12.5" y="230" width="767.5" height="450" as="geometry" />
        </mxCell>
        <mxCell id="smeWoDBhxwMaDhyixX8N-24" value="" style="group" parent="smeWoDBhxwMaDhyixX8N-82" vertex="1" connectable="0">
          <mxGeometry y="180" width="165.42956891317547" height="155" as="geometry" />
        </mxCell>
        <mxCell id="smeWoDBhxwMaDhyixX8N-1" value="Core&lt;br&gt;" style="verticalAlign=top;align=left;spacingTop=8;spacingLeft=2;spacingRight=12;shape=cube;size=10;direction=south;fontStyle=4;html=1;whiteSpace=wrap;" parent="smeWoDBhxwMaDhyixX8N-24" vertex="1">
          <mxGeometry width="165.42956891317547" height="155" as="geometry" />
        </mxCell>
        <mxCell id="smeWoDBhxwMaDhyixX8N-16" value="BaseModel" style="swimlane;fontStyle=2;align=center;verticalAlign=top;childLayout=stackLayout;horizontal=1;startSize=26;horizontalStack=0;resizeParent=1;resizeLast=0;collapsible=1;marginBottom=0;rounded=0;shadow=0;strokeWidth=1;labelBackgroundColor=default;" parent="smeWoDBhxwMaDhyixX8N-24" vertex="1">
          <mxGeometry x="8.758036001285761" y="45" width="131.3705400192864" height="70" as="geometry">
            <mxRectangle x="230" y="140" width="160" height="26" as="alternateBounds" />
          </mxGeometry>
        </mxCell>
        <mxCell id="smeWoDBhxwMaDhyixX8N-17" value="- ID:Guid" style="text;align=left;verticalAlign=top;spacingLeft=4;spacingRight=4;overflow=hidden;rotatable=0;points=[[0,0.5],[1,0.5]];portConstraint=eastwest;rounded=0;shadow=0;html=0;" parent="smeWoDBhxwMaDhyixX8N-16" vertex="1">
          <mxGeometry y="26" width="131.3705400192864" height="26" as="geometry" />
        </mxCell>
        <mxCell id="smeWoDBhxwMaDhyixX8N-18" value="" style="line;html=1;strokeWidth=1;align=left;verticalAlign=middle;spacingTop=-1;spacingLeft=3;spacingRight=3;rotatable=0;labelPosition=right;points=[];portConstraint=eastwest;" parent="smeWoDBhxwMaDhyixX8N-16" vertex="1">
          <mxGeometry y="52" width="131.3705400192864" height="18" as="geometry" />
        </mxCell>
        <mxCell id="smeWoDBhxwMaDhyixX8N-76" style="edgeStyle=orthogonalEdgeStyle;rounded=0;orthogonalLoop=1;jettySize=auto;html=1;" parent="smeWoDBhxwMaDhyixX8N-82" edge="1">
          <mxGeometry relative="1" as="geometry">
            <mxPoint x="78.19459623557992" y="225" as="sourcePoint" />
            <mxPoint x="213.23588530176448" as="targetPoint" />
            <Array as="points">
              <mxPoint x="77.8217972070431" y="200" />
              <mxPoint x="198.04948391013963" y="200" />
              <mxPoint x="198.04948391013963" />
            </Array>
          </mxGeometry>
        </mxCell>
        <mxCell id="smeWoDBhxwMaDhyixX8N-99" value="1" style="edgeLabel;html=1;align=center;verticalAlign=middle;resizable=0;points=[];" parent="smeWoDBhxwMaDhyixX8N-76" vertex="1" connectable="0">
          <mxGeometry x="0.8269" y="-1" relative="1" as="geometry">
            <mxPoint x="-2" as="offset" />
          </mxGeometry>
        </mxCell>
        <mxCell id="smeWoDBhxwMaDhyixX8N-77" style="edgeStyle=orthogonalEdgeStyle;rounded=0;orthogonalLoop=1;jettySize=auto;html=1;" parent="smeWoDBhxwMaDhyixX8N-82" source="smeWoDBhxwMaDhyixX8N-16" target="smeWoDBhxwMaDhyixX8N-41" edge="1">
          <mxGeometry relative="1" as="geometry">
            <Array as="points">
              <mxPoint x="74.09380692167576" y="200" />
              <mxPoint x="582.9644808743169" y="200" />
            </Array>
          </mxGeometry>
        </mxCell>
        <mxCell id="smeWoDBhxwMaDhyixX8N-100" value="1" style="edgeLabel;html=1;align=center;verticalAlign=middle;resizable=0;points=[];" parent="smeWoDBhxwMaDhyixX8N-77" vertex="1" connectable="0">
          <mxGeometry x="0.9172" y="1" relative="1" as="geometry">
            <mxPoint as="offset" />
          </mxGeometry>
        </mxCell>
        <mxCell id="smeWoDBhxwMaDhyixX8N-78" style="edgeStyle=orthogonalEdgeStyle;rounded=0;orthogonalLoop=1;jettySize=auto;html=1;" parent="smeWoDBhxwMaDhyixX8N-82" source="smeWoDBhxwMaDhyixX8N-16" target="smeWoDBhxwMaDhyixX8N-32" edge="1">
          <mxGeometry relative="1" as="geometry">
            <Array as="points">
              <mxPoint x="74.09380692167576" y="400" />
            </Array>
          </mxGeometry>
        </mxCell>
        <mxCell id="smeWoDBhxwMaDhyixX8N-97" value="1" style="edgeLabel;html=1;align=center;verticalAlign=middle;resizable=0;points=[];" parent="smeWoDBhxwMaDhyixX8N-78" vertex="1" connectable="0">
          <mxGeometry x="-0.9586" y="3" relative="1" as="geometry">
            <mxPoint x="-3" as="offset" />
          </mxGeometry>
        </mxCell>
        <mxCell id="smeWoDBhxwMaDhyixX8N-102" value="1" style="edgeLabel;html=1;align=center;verticalAlign=middle;resizable=0;points=[];" parent="smeWoDBhxwMaDhyixX8N-78" vertex="1" connectable="0">
          <mxGeometry x="0.9103" y="1" relative="1" as="geometry">
            <mxPoint as="offset" />
          </mxGeometry>
        </mxCell>
        <mxCell id="smeWoDBhxwMaDhyixX8N-79" style="edgeStyle=orthogonalEdgeStyle;rounded=0;orthogonalLoop=1;jettySize=auto;html=1;" parent="smeWoDBhxwMaDhyixX8N-82" source="smeWoDBhxwMaDhyixX8N-16" target="smeWoDBhxwMaDhyixX8N-38" edge="1">
          <mxGeometry relative="1" as="geometry">
            <Array as="points">
              <mxPoint x="44.269884638737096" y="450" />
              <mxPoint x="767.5" y="450" />
            </Array>
          </mxGeometry>
        </mxCell>
        <mxCell id="smeWoDBhxwMaDhyixX8N-98" value="1" style="edgeLabel;html=1;align=center;verticalAlign=middle;resizable=0;points=[];" parent="smeWoDBhxwMaDhyixX8N-79" vertex="1" connectable="0">
          <mxGeometry x="-0.9693" y="2" relative="1" as="geometry">
            <mxPoint x="-2" as="offset" />
          </mxGeometry>
        </mxCell>
        <mxCell id="smeWoDBhxwMaDhyixX8N-101" value="1" style="edgeLabel;html=1;align=center;verticalAlign=middle;resizable=0;points=[];" parent="smeWoDBhxwMaDhyixX8N-79" vertex="1" connectable="0">
          <mxGeometry x="0.9644" y="2" relative="1" as="geometry">
            <mxPoint as="offset" />
          </mxGeometry>
        </mxCell>
        <mxCell id="smeWoDBhxwMaDhyixX8N-75" style="edgeStyle=orthogonalEdgeStyle;rounded=0;orthogonalLoop=1;jettySize=auto;html=1;" parent="1" source="smeWoDBhxwMaDhyixX8N-16" target="smeWoDBhxwMaDhyixX8N-35" edge="1">
          <mxGeometry relative="1" as="geometry">
            <mxPoint x="150" y="494" as="sourcePoint" />
            <Array as="points">
              <mxPoint x="230" y="490" />
              <mxPoint x="230" y="518" />
            </Array>
          </mxGeometry>
        </mxCell>
        <mxCell id="smeWoDBhxwMaDhyixX8N-96" value="1" style="edgeLabel;html=1;align=center;verticalAlign=middle;resizable=0;points=[];" parent="smeWoDBhxwMaDhyixX8N-75" vertex="1" connectable="0">
          <mxGeometry x="-0.8325" relative="1" as="geometry">
            <mxPoint as="offset" />
          </mxGeometry>
        </mxCell>
        <mxCell id="smeWoDBhxwMaDhyixX8N-103" value="1" style="edgeLabel;html=1;align=center;verticalAlign=middle;resizable=0;points=[];" parent="smeWoDBhxwMaDhyixX8N-75" vertex="1" connectable="0">
          <mxGeometry x="0.5864" y="1" relative="1" as="geometry">
            <mxPoint x="10" as="offset" />
          </mxGeometry>
        </mxCell>
        <mxCell id="smeWoDBhxwMaDhyixX8N-92" style="edgeStyle=orthogonalEdgeStyle;rounded=0;orthogonalLoop=1;jettySize=auto;html=1;" parent="1" source="smeWoDBhxwMaDhyixX8N-85" target="smeWoDBhxwMaDhyixX8N-35" edge="1">
          <mxGeometry relative="1" as="geometry">
            <Array as="points">
              <mxPoint x="1136" y="700" />
              <mxPoint x="370" y="700" />
              <mxPoint x="370" y="610" />
              <mxPoint x="351" y="610" />
            </Array>
          </mxGeometry>
        </mxCell>
        <mxCell id="smeWoDBhxwMaDhyixX8N-93" value="1" style="edgeLabel;html=1;align=center;verticalAlign=middle;resizable=0;points=[];" parent="smeWoDBhxwMaDhyixX8N-92" vertex="1" connectable="0">
          <mxGeometry x="0.9296" y="-2" relative="1" as="geometry">
            <mxPoint as="offset" />
          </mxGeometry>
        </mxCell>
        <mxCell id="smeWoDBhxwMaDhyixX8N-94" value="1" style="edgeLabel;html=1;align=center;verticalAlign=middle;resizable=0;points=[];" parent="smeWoDBhxwMaDhyixX8N-92" vertex="1" connectable="0">
          <mxGeometry x="-0.9546" y="-2" relative="1" as="geometry">
            <mxPoint x="2" as="offset" />
          </mxGeometry>
        </mxCell>
        <mxCell id="smeWoDBhxwMaDhyixX8N-107" style="edgeStyle=orthogonalEdgeStyle;rounded=0;orthogonalLoop=1;jettySize=auto;html=1;" parent="1" source="smeWoDBhxwMaDhyixX8N-41" target="smeWoDBhxwMaDhyixX8N-27" edge="1">
          <mxGeometry relative="1" as="geometry">
            <Array as="points">
              <mxPoint x="638" y="80" />
            </Array>
          </mxGeometry>
        </mxCell>
        <mxCell id="smeWoDBhxwMaDhyixX8N-108" value="n" style="edgeLabel;html=1;align=center;verticalAlign=middle;resizable=0;points=[];" parent="smeWoDBhxwMaDhyixX8N-107" vertex="1" connectable="0">
          <mxGeometry x="0.8991" y="-1" relative="1" as="geometry">
            <mxPoint x="-9" as="offset" />
          </mxGeometry>
        </mxCell>
        <mxCell id="smeWoDBhxwMaDhyixX8N-109" value="n" style="edgeLabel;html=1;align=center;verticalAlign=middle;resizable=0;points=[];" parent="smeWoDBhxwMaDhyixX8N-107" vertex="1" connectable="0">
          <mxGeometry x="-0.946" y="-1" relative="1" as="geometry">
            <mxPoint x="-1" as="offset" />
          </mxGeometry>
        </mxCell>
        <mxCell id="smeWoDBhxwMaDhyixX8N-118" style="edgeStyle=orthogonalEdgeStyle;rounded=0;orthogonalLoop=1;jettySize=auto;html=1;" parent="1" source="smeWoDBhxwMaDhyixX8N-35" target="smeWoDBhxwMaDhyixX8N-26" edge="1">
          <mxGeometry relative="1" as="geometry">
            <Array as="points">
              <mxPoint x="215" y="540" />
              <mxPoint x="215" y="201" />
            </Array>
          </mxGeometry>
        </mxCell>
        <mxCell id="smeWoDBhxwMaDhyixX8N-119" value="1" style="edgeLabel;html=1;align=center;verticalAlign=middle;resizable=0;points=[];" parent="smeWoDBhxwMaDhyixX8N-118" vertex="1" connectable="0">
          <mxGeometry x="-0.9233" y="4" relative="1" as="geometry">
            <mxPoint as="offset" />
          </mxGeometry>
        </mxCell>
        <mxCell id="smeWoDBhxwMaDhyixX8N-120" value="n" style="edgeLabel;html=1;align=center;verticalAlign=middle;resizable=0;points=[];" parent="smeWoDBhxwMaDhyixX8N-118" vertex="1" connectable="0">
          <mxGeometry x="0.9105" y="2" relative="1" as="geometry">
            <mxPoint x="-6" y="-2" as="offset" />
          </mxGeometry>
        </mxCell>
        <mxCell id="smeWoDBhxwMaDhyixX8N-126" style="edgeStyle=orthogonalEdgeStyle;rounded=0;orthogonalLoop=1;jettySize=auto;html=1;entryX=1;entryY=0.5;entryDx=0;entryDy=0;" parent="1" source="smeWoDBhxwMaDhyixX8N-52" target="smeWoDBhxwMaDhyixX8N-125" edge="1">
          <mxGeometry relative="1" as="geometry">
            <Array as="points">
              <mxPoint x="210" y="560" />
              <mxPoint x="210" y="302" />
            </Array>
          </mxGeometry>
        </mxCell>
        <mxCell id="smeWoDBhxwMaDhyixX8N-127" value="1" style="edgeLabel;html=1;align=center;verticalAlign=middle;resizable=0;points=[];" parent="smeWoDBhxwMaDhyixX8N-126" vertex="1" connectable="0">
          <mxGeometry x="-0.9224" y="-1" relative="1" as="geometry">
            <mxPoint as="offset" />
          </mxGeometry>
        </mxCell>
        <mxCell id="smeWoDBhxwMaDhyixX8N-128" value="n" style="edgeLabel;html=1;align=center;verticalAlign=middle;resizable=0;points=[];" parent="smeWoDBhxwMaDhyixX8N-126" vertex="1" connectable="0">
          <mxGeometry x="0.8974" y="1" relative="1" as="geometry">
            <mxPoint x="-4" y="-2" as="offset" />
          </mxGeometry>
        </mxCell>
        <mxCell id="smeWoDBhxwMaDhyixX8N-129" style="edgeStyle=orthogonalEdgeStyle;rounded=0;orthogonalLoop=1;jettySize=auto;html=1;" parent="1" source="smeWoDBhxwMaDhyixX8N-16" target="smeWoDBhxwMaDhyixX8N-25" edge="1">
          <mxGeometry relative="1" as="geometry" />
        </mxCell>
        <mxCell id="smeWoDBhxwMaDhyixX8N-130" value="1" style="edgeLabel;html=1;align=center;verticalAlign=middle;resizable=0;points=[];" parent="smeWoDBhxwMaDhyixX8N-129" vertex="1" connectable="0">
          <mxGeometry x="0.6204" y="-1" relative="1" as="geometry">
            <mxPoint x="-1" y="3" as="offset" />
          </mxGeometry>
        </mxCell>
        <mxCell id="smeWoDBhxwMaDhyixX8N-131" value="1" style="edgeLabel;html=1;align=center;verticalAlign=middle;resizable=0;points=[];" parent="smeWoDBhxwMaDhyixX8N-129" vertex="1" connectable="0">
          <mxGeometry x="-0.7602" y="-2" relative="1" as="geometry">
            <mxPoint as="offset" />
          </mxGeometry>
        </mxCell>
        <mxCell id="smeWoDBhxwMaDhyixX8N-133" value="" style="edgeStyle=orthogonalEdgeStyle;rounded=0;orthogonalLoop=1;jettySize=auto;html=1;" parent="1" source="smeWoDBhxwMaDhyixX8N-29" target="smeWoDBhxwMaDhyixX8N-125" edge="1">
          <mxGeometry relative="1" as="geometry" />
        </mxCell>
        <mxCell id="smeWoDBhxwMaDhyixX8N-134" style="edgeStyle=orthogonalEdgeStyle;rounded=0;orthogonalLoop=1;jettySize=auto;html=1;" parent="1" source="smeWoDBhxwMaDhyixX8N-27" target="smeWoDBhxwMaDhyixX8N-30" edge="1">
          <mxGeometry relative="1" as="geometry" />
        </mxCell>
        <mxCell id="smeWoDBhxwMaDhyixX8N-135" value="1" style="edgeLabel;html=1;align=center;verticalAlign=middle;resizable=0;points=[];" parent="smeWoDBhxwMaDhyixX8N-134" vertex="1" connectable="0">
          <mxGeometry x="0.8194" y="-2" relative="1" as="geometry">
            <mxPoint as="offset" />
          </mxGeometry>
        </mxCell>
        <mxCell id="smeWoDBhxwMaDhyixX8N-136" value="n" style="edgeLabel;html=1;align=center;verticalAlign=middle;resizable=0;points=[];" parent="smeWoDBhxwMaDhyixX8N-134" vertex="1" connectable="0">
          <mxGeometry x="-0.9114" y="-2" relative="1" as="geometry">
            <mxPoint y="-1" as="offset" />
          </mxGeometry>
        </mxCell>
        <mxCell id="oiJqAKb3dmMCB8TSc90F-8" style="edgeStyle=orthogonalEdgeStyle;rounded=0;orthogonalLoop=1;jettySize=auto;html=1;" edge="1" parent="1" source="smeWoDBhxwMaDhyixX8N-16" target="oiJqAKb3dmMCB8TSc90F-1">
          <mxGeometry relative="1" as="geometry">
            <Array as="points">
              <mxPoint x="40" y="740" />
              <mxPoint x="900" y="740" />
            </Array>
          </mxGeometry>
        </mxCell>
        <mxCell id="oiJqAKb3dmMCB8TSc90F-9" value="1" style="edgeLabel;html=1;align=center;verticalAlign=middle;resizable=0;points=[];" vertex="1" connectable="0" parent="oiJqAKb3dmMCB8TSc90F-8">
          <mxGeometry x="-0.9629" y="1" relative="1" as="geometry">
            <mxPoint as="offset" />
          </mxGeometry>
        </mxCell>
        <mxCell id="oiJqAKb3dmMCB8TSc90F-10" value="n" style="edgeLabel;html=1;align=center;verticalAlign=middle;resizable=0;points=[];" vertex="1" connectable="0" parent="oiJqAKb3dmMCB8TSc90F-8">
          <mxGeometry x="0.9595" relative="1" as="geometry">
            <mxPoint as="offset" />
          </mxGeometry>
        </mxCell>
      </root>
    </mxGraphModel>
  </diagram>
</mxfile>
